<svg xmlns="http://www.w3.org/2000/svg" version="1.1" xmlns:xlink="http://www.w3.org/1999/xlink" xmlns:svgjs="http://svgjs.dev/svgjs" width="100%" height="100%" viewBox="0 0 1000 600"><rect width="1000" height="600" x="0" y="0" fill="#96351e"/><g><circle r="166.66666666666666" cx="358.9891916910807" cy="381.2114226436913" fill="#dbb98f" transform="matrix(0.6499498520951521,0,0,0.6499498520951521,0,52.23168943881579)"/><path d="M391.9279605746938 456.21142227826203L326.01887030051 456.21142227826203L326.01887030051 452.58137180818005L348.74614280884924 443.49046280484436L348.74614280884924 318.7114236028097L311.71962801401327 318.7114236028097L296.25245644583794 352.10788792756375L292.622405975756 352.10788792756375L292.622405975756 306.2114237232231L425.3559905557094 306.2114237232231L425.3559905557094 352.10788792756375L421.7259400856274 352.10788792756375L406.25876851745215 318.7114236028097L369.2006880663546 318.7114236028097L369.2006880663546 443.49046280484436L391.9279605746938 452.58137180818005L391.9279605746938 456.21142227826203Z " fill="#96351e" transform="matrix(0.6499498520951521,0,0,0.6499498520951521,0,52.23168943881579)"/><path d="M637.7770760393635 421.3629394018004L637.7770760393635 421.3629394018004Q631.1062005042461 421.3629394018004 626.2450893098862 417.42775414922335Q621.4050218869305 413.4925688966463 621.4050218869305 406.3587303906376L621.4050218869305 406.3587303906376L621.4050218869305 358.77876324584224L608.9891967584788 358.77876324584224L608.9891967584788 357.87388107546354L621.867984857822 351.66596851123774L632.6213520453454 334.99930155914666L633.526234215724 334.99930155914666L633.526234215724 351.66596851123774L653.5178170496716 351.66596851123774L653.5178170496716 358.77876324584224L633.526234215724 358.77876324584224L633.526234215724 403.7913902793307Q633.526234215724 407.7265755319077 637.0195002688138 409.5363398726651Q640.4917225504994 411.3671479848266 645.184483573626 411.3671479848266L645.184483573626 411.3671479848266Q648.0674802559954 411.3671479848266 650.5716890530898 411.05149141376427Q653.0758978501844 410.7568786141061 654.8856621909417 410.2939156432147L654.8856621909417 410.2939156432147L655.3486251618332 410.2939156432147L655.3486251618332 411.8090671843139Q653.8334736207339 415.3023332374037 649.3511503116489 418.33263631960205Q644.8898707739679 421.3629394018004 637.7770760393635 421.3629394018004ZM699.5826326533679 419.84778786070126L667.1541809195644 419.84778786070126L667.1541809195644 417.42775414922335L676.7080531370509 412.5666429548635L676.7080531370509 323.4883586010736L667.6171438904557 315.59694432451533L667.6171438904557 314.5447557543076L687.9243832954658 306.21142227826203L688.8292654658444 306.21142227826203L688.8292654658444 361.36714712855337L689.4395348365649 361.36714712855337Q695.1844844298994 355.60115376381475 700.5716899093632 352.8865072526787Q705.9588953888269 350.1508169701385 712.4614207527109 350.1508169701385L712.4614207527109 350.1508169701385Q721.4050235994771 350.1508169701385 727.086841878599 354.6120965078195Q732.7686601577209 359.0944198169046 732.7686601577209 367.86967249243736L732.7686601577209 367.86967249243736L732.7686601577209 412.5666429548635L742.3225323752074 417.42775414922335L742.3225323752074 419.84778786070126L709.8940806414041 419.84778786070126L709.8940806414041 417.42775414922335L720.6474478289274 413.0296059257549L720.6474478289274 375.0035109984461Q720.6474478289274 368.3326354633288 716.4807810909047 364.839369410239Q712.3141143528819 361.36714712855337 705.6432388177645 361.36714712855337L705.6432388177645 361.36714712855337Q701.5607471653584 361.36714712855337 696.6365046567861 362.73499226982346Q691.7122621482138 364.0817936396894 688.8292654658444 366.67017752240054L688.8292654658444 366.67017752240054L688.8292654658444 413.0296059257549L699.5826326533679 417.42775414922335L699.5826326533679 419.84778786070126ZM787.3141156372917 421.3629394018004L787.3141156372917 421.3629394018004Q772.6255631971912 421.3629394018004 764.1238795499125 412.41933655503436Q755.6432396740379 403.4757337082683 755.6432396740379 388.78718126816784L755.6432396740379 388.78718126816784Q755.6432396740379 377.42354470992393 760.125562983123 368.7114233486036Q764.5868425208039 359.9993019872833 771.9311187408541 355.0750594787109Q779.2753949609044 350.1508169701385 787.9243850080122 350.1508169701385L787.9243850080122 350.1508169701385Q799.8982909369768 350.1508169701385 806.7796041861354 358.48415044618406Q813.6819612066984 366.8174839222296 813.6819612066984 382.4319623041129L813.6819612066984 382.4319623041129L812.9243854361489 383.18953807466255L767.6171456030024 383.18953807466255Q767.7644520028314 390.15502640943794 770.3528358855426 396.2787638880472Q772.9201759968494 402.42354513806055 778.6019942759715 406.2114239908085Q784.2838125550934 409.9993028435565 793.8376847725799 409.9993028435565L793.8376847725799 409.9993028435565Q802.1710182486254 409.9993028435565 813.3663046356362 403.93869667915976L813.3663046356362 403.93869667915976L813.8292676065275 403.93869667915976L813.8292676065275 405.4538482202589Q810.3360015534379 411.9774173555471 803.454688304279 416.67017837867377Q796.5523312837161 421.3629394018004 787.3141156372917 421.3629394018004ZM785.5043512965344 356.8216925052558L785.5043512965344 356.8216925052558Q778.2232063906965 356.8216925052558 773.5935766817825 361.8932414136572Q768.9849907442724 366.9647903220587 767.9117584026606 376.20300596848296L767.9117584026606 376.20300596848296L802.1710182486254 376.20300596848296Q800.487516536293 365.91260175185096 796.3208497982703 361.36714712855337Q792.1541830602475 356.8216925052558 785.5043512965344 356.8216925052558ZM860.188696009882 419.84778786070126L828.6861702178612 419.84778786070126L828.6861702178612 417.42775414922335L838.2189986639437 412.5666429548635L838.2189986639437 367.4277532929501L829.1280894173485 359.5363390163918L829.1280894173485 358.48415044618406L847.9201772812594 350.1508169701385L848.825059451638 350.1508169701385L850.1929045929082 361.36714712855337L850.9504803634577 361.36714712855337Q856.548123556963 355.60115376381475 861.7880226365978 352.8865072526787Q867.0068779448284 350.1508169701385 873.2147905090542 350.1508169701385L873.2147905090542 350.1508169701385Q880.4959354148918 350.1508169701385 885.6516594089101 353.4126015377826Q890.807383402928 356.6743861054267 892.3225349440272 363.1769114693107L892.3225349440272 363.1769114693107L892.7644541435145 363.1769114693107Q899.1407168789735 356.50603593419345 904.6541849868624 353.328426452166Q910.1886968661552 350.1508169701385 916.8595724012725 350.1508169701385L916.8595724012725 350.1508169701385Q925.3402122771472 350.1508169701385 930.8747241564399 354.6120965078195Q936.4092360357329 359.0944198169046 936.4092360357329 367.86967249243736L936.4092360357329 367.86967249243736L936.4092360357329 412.5666429548635L945.9420644818151 417.42775414922335L945.9420644818151 419.84778786070126L913.5346565194159 419.84778786070126L913.5346565194159 417.42775414922335L924.2880237069394 412.5666429548635L924.2880237069394 375.0035109984461Q924.2880237069394 368.3326354633288 920.2686633687456 364.839369410239Q916.249303030552 361.36714712855337 910.0413904663262 361.36714712855337L910.0413904663262 361.36714712855337Q904.885666472308 361.36714712855337 900.3402118490105 363.02960506948165Q895.7947572257128 364.6920630104099 892.7644541435145 368.03802266367063L892.7644541435145 368.03802266367063L892.7644541435145 412.5666429548635L903.2232085313797 417.42775414922335L903.2232085313797 419.84778786070126L870.500143997918 419.84778786070126L870.500143997918 417.42775414922335L880.643241814721 412.5666429548635L880.643241814721 375.0035109984461Q880.643241814721 368.3326354633288 876.6238814765272 364.839369410239Q872.6255649097377 361.36714712855337 866.3966085741079 361.36714712855337L866.3966085741079 361.36714712855337Q862.6087297213599 361.36714712855337 857.9159686982332 362.73499226982346Q853.2232076751066 364.0817936396894 850.3402109927372 366.67017752240054L850.3402109927372 366.67017752240054L850.3402109927372 412.5666429548635L860.188696009882 417.42775414922335L860.188696009882 419.84778786070126ZM990.9546915153037 421.3629394018004L990.9546915153037 421.3629394018004Q976.245095303799 421.3629394018004 967.7644554279243 412.41933655503436Q959.2838155520496 403.4757337082683 959.2838155520496 388.78718126816784L959.2838155520496 388.78718126816784Q959.2838155520496 377.42354470992393 963.7450950897307 368.7114233486036Q968.2274183988159 359.9993019872833 975.5716946188661 355.0750594787109Q982.9159708389163 350.1508169701385 991.5649608860242 350.1508169701385L991.5649608860242 350.1508169701385Q1003.5178230435845 350.1508169701385 1010.4201800641474 358.48415044618406Q1017.3225370847103 366.8174839222296 1017.3225370847103 382.4319623041129L1017.3225370847103 382.4319623041129L1016.5649613141607 383.18953807466255L971.2577214810142 383.18953807466255Q971.4050278808434 390.15502640943794 973.9723679921503 396.2787638880472Q976.5607518748614 402.42354513806055 982.2425701539833 406.2114239908085Q987.9243884331054 409.9993028435565 997.4572168791876 409.9993028435565L997.4572168791876 409.9993028435565Q1005.7905503552333 409.9993028435565 1017.006880513648 403.93869667915976L1017.006880513648 403.93869667915976L1017.4698434845395 403.93869667915976L1017.4698434845395 405.4538482202589Q1013.9765774314496 411.9774173555471 1007.095264182291 416.67017837867377Q1000.1929071617278 421.3629394018004 990.9546915153037 421.3629394018004ZM989.1238834031421 356.8216925052558L989.1238834031421 356.8216925052558Q981.8637822687085 356.8216925052558 977.2341525597944 361.8932414136572Q972.6255666222844 366.9647903220587 971.5523342806723 376.20300596848296L971.5523342806723 376.20300596848296L1005.7905503552333 376.20300596848296Q1004.128092414305 365.91260175185096 999.9614256762823 361.36714712855337Q995.7947589382595 356.8216925052558 989.1238834031421 356.8216925052558ZM1100.8031782449948 419.84778786070126L1069.5952652526325 419.84778786070126L1069.5952652526325 417.42775414922335L1079.1280936987148 412.5666429548635L1079.1280936987148 323.4883586010736L1070.0371844521196 315.59694432451533L1070.0371844521196 314.5447557543076L1090.3444238571296 306.21142227826203L1091.2493060275083 306.21142227826203L1091.2493060275083 412.5666429548635L1100.8031782449948 417.42775414922335L1100.8031782449948 419.84778786070126ZM1148.3831453897903 421.3629394018004L1148.3831453897903 421.3629394018004Q1138.3663102014123 421.3629394018004 1130.8747275815329 416.67017837867377Q1123.3831449616537 411.9774173555471 1119.216478223631 403.93869667915976Q1115.0498114856082 395.8999760027724 1115.0498114856082 385.75687818596947L1115.0498114856082 385.75687818596947Q1115.0498114856082 375.6137803691666 1119.216478223631 367.5750596927792Q1123.3831449616537 359.5363390163918 1130.8747275815329 354.84357799326517Q1138.3663102014123 350.1508169701385 1148.3831453897903 350.1508169701385L1148.3831453897903 350.1508169701385Q1158.3789368067642 350.1508169701385 1165.8705194266433 354.84357799326517Q1173.3831458179268 359.5363390163918 1177.5498125559498 367.5750596927792Q1181.7164792939725 375.6137803691666 1181.7164792939725 385.75687818596947L1181.7164792939725 385.75687818596947Q1181.7164792939725 395.8999760027724 1177.5498125559498 403.93869667915976Q1173.3831458179268 411.9774173555471 1165.8705194266433 416.67017837867377Q1158.3789368067642 421.3629394018004 1148.3831453897903 421.3629394018004ZM1150.4875225302058 414.8393702665122L1150.4875225302058 414.8393702665122Q1156.5481286946026 414.8393702665122 1160.5043577185838 411.05149141376427Q1164.4395429711608 407.2636125610163 1166.2493073119183 401.2871814822362Q1168.0801154240798 395.31075040345604 1168.0801154240798 388.78718126816784L1168.0801154240798 388.78718126816784Q1168.0801154240798 380.7484605917805 1165.8705194266433 373.3410530575178Q1163.681967200611 365.91260175185096 1158.905031091868 361.21984072872425Q1154.1280949831248 356.50603593419345 1146.5523372776288 356.50603593419345L1146.5523372776288 356.50603593419345Q1140.344424713403 356.50603593419345 1136.4092394608258 360.29391478694146Q1132.4740542082488 364.0817936396894 1130.5801147818747 369.9950934042571Q1128.6861753555008 375.9083931688248 1128.6861753555008 382.57926870394203L1128.6861753555008 382.57926870394203Q1128.6861753555008 390.59694560892524 1130.9589026671495 398.0253969145921Q1133.2316299787983 405.4538482202589 1138.0716974017541 410.14660924338557Q1142.91176482471 414.8393702665122 1150.4875225302058 414.8393702665122ZM1228.370520496985 398.3410534856544L1228.370520496985 398.3410534856544Q1221.6996449618678 398.3410534856544 1216.1020017683625 395.8999760027724L1216.1020017683625 395.8999760027724Q1213.071698686164 397.1205147442134 1211.7880286305106 399.098629256204Q1210.504358574857 401.05569999679045 1210.504358574857 403.32842730843925L1210.504358574857 403.32842730843925Q1210.504358574857 410.9041850139352 1221.2577257623805 410.9041850139352L1221.2577257623805 410.9041850139352L1239.4395442555708 410.9041850139352Q1250.4875242427522 410.9041850139352 1255.727423322387 415.7652962082951Q1260.9462786306176 420.60536363125084 1260.9462786306176 430.1592358487374L1260.9462786306176 430.1592358487374Q1260.9462786306176 436.6617612126214 1256.6323054927657 442.6592360628057Q1252.318332354914 448.6356671415858 1244.363786764143 452.42354599433384Q1236.4092411733725 456.2114248470818 1225.4875238146158 456.2114248470818L1225.4875238146158 456.2114248470818Q1211.0935841741734 456.2114248470818 1204.822540295735 450.9925695388513Q1198.5304526458926 445.7526704592166 1198.5304526458926 438.1769127537206L1198.5304526458926 438.1769127537206Q1198.5304526458926 432.57926956021527 1201.2450991570286 428.475734136405L1201.2450991570286 428.475734136405L1211.7038535448937 421.51024580162954L1211.7038535448937 420.899976430909Q1205.9589039515595 419.70048146087214 1202.9286008693612 416.4386968932281Q1199.8982977871626 413.176912325584 1199.8982977871626 408.48415130245735L1199.8982977871626 408.48415130245735Q1199.8982977871626 402.71815793771873 1203.8334830397398 398.78297268514166L1203.8334830397398 398.78297268514166L1212.0195101159563 394.55317463290646L1212.0195101159563 393.6272486911236Q1207.1583989215962 390.4496392090961 1204.275402239227 385.4622653863113Q1201.4134493282618 380.4538477921223 1201.4134493282618 374.24593522789644L1201.4134493282618 374.24593522789644Q1201.4134493282618 367.4277532929501 1204.8856716099476 361.9774164992739Q1208.3789376630373 356.50603593419345 1214.5026751416465 353.328426452166Q1220.64745639166 350.1508169701385 1228.370520496985 350.1508169701385L1228.370520496985 350.1508169701385Q1231.5481299790124 350.1508169701385 1235.272877517548 350.9083927406881Q1238.9765812846792 351.66596851123774 1241.7122715672197 352.8865072526787L1241.7122715672197 352.8865072526787L1264.4395446837073 351.66596851123774L1264.4395446837073 359.85199558745416L1250.3402178429233 358.94711341707546L1249.7299484722028 359.5363390163918Q1252.1710259550848 362.272029298932 1253.7493088103963 366.2072145515091Q1255.3486354371123 370.14239980408615 1255.3486354371123 374.24593522789644L1255.3486354371123 374.24593522789644Q1255.3486354371123 381.0641171628428 1251.8553693840224 386.51445395651905Q1248.3831471023368 391.96479075019533 1242.2383658523236 395.1424002322228Q1236.09358460231 398.3410534856544 1228.370520496985 398.3410534856544ZM1229.8856720380843 392.1120971500244L1229.8856720380843 392.1120971500244Q1235.946278202481 392.1120971500244 1239.4395442555708 386.8932418417939Q1242.9117665372564 381.67438653356334 1242.9117665372564 374.68785442738374L1242.9117665372564 374.68785442738374Q1242.9117665372564 366.3545209513382 1238.366311913959 361.28297204293676Q1233.8208572906613 356.21142313453527 1227.318331926777 356.21142313453527L1227.318331926777 356.21142313453527Q1220.794762791489 356.21142313453527 1217.3225405098035 361.4302784427658Q1213.8292744567136 366.67017752240054 1213.8292744567136 373.78297225700504L1213.8292744567136 373.78297225700504Q1213.8292744567136 381.67438653356334 1218.3747290800113 386.8932418417939Q1222.9201837033088 392.1120971500244 1229.8856720380843 392.1120971500244ZM1209.283819833416 436.51445481279234L1209.283819833416 436.51445481279234Q1209.283819833416 443.1853303479096 1214.5026751416465 447.5834785713781Q1219.7425742212813 451.9605830234424 1227.318331926777 451.9605830234424L1227.318331926777 451.9605830234424Q1234.1365138617236 451.9605830234424 1239.208062770125 449.3090678265188Q1244.2796116785264 446.6575526295952 1247.0784332752792 442.3435794917434Q1249.898298643436 438.0296063538915 1249.898298643436 433.1895389309358L1249.898298643436 433.1895389309358Q1249.898298643436 426.5186633958185 1246.3208575047295 423.9302795131074Q1242.7644601374275 421.3629394018004 1233.5262444910031 421.3629394018004L1233.5262444910031 421.3629394018004L1217.3225405098035 421.3629394018004Q1216.859577538912 421.3629394018004 1216.5649647392538 421.3629394018004L1216.5649647392538 421.3629394018004Q1212.4614293154434 423.78297311327833 1210.883146460132 427.5077206518138Q1209.283819833416 431.21142441894517 1209.283819833416 436.51445481279234ZM1312.9243939988814 421.3629394018004L1312.9243939988814 421.3629394018004Q1302.9286025819076 421.3629394018004 1295.4159761906242 416.67017837867377Q1287.9243935707448 411.9774173555471 1283.757726832722 403.93869667915976Q1279.5910600946993 395.8999760027724 1279.5910600946993 385.75687818596947L1279.5910600946993 385.75687818596947Q1279.5910600946993 375.6137803691666 1283.757726832722 367.5750596927792Q1287.9243935707448 359.5363390163918 1295.4159761906242 354.84357799326517Q1302.9286025819076 350.1508169701385 1312.9243939988814 350.1508169701385L1312.9243939988814 350.1508169701385Q1322.9201854158553 350.1508169701385 1330.4117680357347 354.84357799326517Q1337.9243944270181 359.5363390163918 1342.0910611650409 367.5750596927792Q1346.2577279030636 375.6137803691666 1346.2577279030636 385.75687818596947L1346.2577279030636 385.75687818596947Q1346.2577279030636 395.8999760027724 1342.0910611650409 403.93869667915976Q1337.9243944270181 411.9774173555471 1330.4117680357347 416.67017837867377Q1322.9201854158553 421.3629394018004 1312.9243939988814 421.3629394018004ZM1315.0498149107011 414.8393702665122L1315.0498149107011 414.8393702665122Q1321.110421075098 414.8393702665122 1325.045606327675 411.05149141376427Q1328.980791580252 407.2636125610163 1330.7905559210096 401.2871814822362Q1332.621364033171 395.31075040345604 1332.621364033171 388.78718126816784L1332.621364033171 388.78718126816784Q1332.621364033171 380.7484605917805 1330.4117680357347 373.3410530575178Q1328.2232158097024 365.91260175185096 1323.4462797009592 361.21984072872425Q1318.669343592216 356.50603593419345 1311.09358588672 356.50603593419345L1311.09358588672 356.50603593419345Q1304.885673322494 356.50603593419345 1300.9504880699171 360.29391478694146Q1297.01530281734 364.0817936396894 1295.121363390966 369.9950934042571Q1293.227423964592 375.9083931688248 1293.227423964592 382.57926870394203L1293.227423964592 382.57926870394203Q1293.227423964592 390.59694560892524 1295.5001512762408 398.0253969145921Q1297.7728785878896 405.4538482202589 1302.6129460108452 410.14660924338557Q1307.4740572052053 414.8393702665122 1315.0498149107011 414.8393702665122Z " fill="#dbb98f" transform="matrix(0.6499498520951521,0,0,0.6499498520951521,0,52.23168943881579)"/></g></svg>