<svg xmlns="http://www.w3.org/2000/svg" version="1.1" xmlns:xlink="http://www.w3.org/1999/xlink" xmlns:svgjs="http://svgjs.dev/svgjs" width="100%" height="100%" viewBox="0 0 1000 600"><rect width="1000" height="600" x="0" y="0" fill="#1e293b"/><g><circle r="166.66666666666666" cx="399.1896616617838" cy="421.41200074028166" fill="#3c4f82" transform="matrix(0.5375809411830254,0,0,0.5375809411830254,0,73.4569275581677)"/><path d="M398.3165144322087 496.41200517912455L398.3165144322087 496.41200517912455Q384.62166230197386 496.41200517912455 375.1547510978518 493.8691131728393Q365.65720264064197 491.3262211665541 355.5162718685889 486.27107440707147L355.5162718685889 486.27107440707147L353.3103896462692 450.0884785104108L356.83367375136316 450.0884785104108L367.64862409134724 473.4647026163821Q375.5836726410806 480.08234928334116 383.08979964758515 483.05416283285524Q390.5959266540897 486.0566136354571 398.3165144322087 486.0566136354571L398.3165144322087 486.0566136354571Q411.3373469945125 486.0566136354571 418.7209249886659 479.1938689437958Q426.1045029828193 472.36176150522226 426.1045029828193 460.6889680787805L426.1045029828193 460.6889680787805Q426.1045029828193 450.97695884995625 421.815287550531 445.462253294157Q417.49543486515495 439.94754773835774 409.4378373030705 435.62769505298166Q401.41087699407376 431.3384796206933 390.38146588247525 425.8237740648941L390.38146588247525 425.8237740648941Q379.99543708572 420.5235292807092 372.73440810391764 415.4683825212266Q365.44274186902754 410.38259850865614 361.70499699231914 403.642402829346Q357.936614862523 396.93284440312357 357.936614862523 386.79191363107043L357.936614862523 386.79191363107043Q357.936614862523 379.28578662456596 361.58244797996804 372.1166694020269Q365.2282810974131 364.9475521794879 371.50891798040675 359.09583683972306Q377.7895548634003 353.24412149995834 385.6326916538704 349.84338640721546Q393.44519119125266 346.4120140613848 401.8397985373026 346.4120140613848L401.8397985373026 346.4120140613848Q411.9807293093557 346.4120140613848 420.58979742702013 348.83235705531894Q429.1988655446845 351.25270004925306 438.23685520557774 355.66446449389247L438.23685520557774 355.66446449389247L440.44273742789744 390.9585800510077L436.91945332280346 390.9585800510077L426.7785225507504 367.7968167166508Q419.0579347726314 362.06765038923714 413.29813119213 359.5247583829519Q407.5689648647163 357.01250362975446 400.06283785821176 357.01250362975446L400.06283785821176 357.01250362975446Q390.38146588247525 357.01250362975446 384.0701917463939 363.63015029671357Q377.7895548634003 370.24779696367267 377.7895548634003 379.9291689394092L377.7895548634003 379.9291689394092Q377.7895548634003 391.2036780757099 384.62166230197386 397.48431495870346Q391.48440699363516 403.76495184169704 406.0371022103276 410.811520051885L406.0371022103276 410.811520051885Q419.4868563158602 417.4291667188441 428.09592443352466 423.06642128699445Q436.70499255118904 428.7036758551448 440.87165897112624 435.96470483694713Q445.06896264415127 443.2563710718373 445.06896264415127 454.5002429550502L445.06896264415127 454.5002429550502Q445.06896264415127 464.8556344987177 440.6571981995118 472.6987712891878Q436.2454337548724 480.5419080796578 429.29077730394783 485.8115156107549Q422.366758106111 491.11176039493967 414.09469977241207 493.777201413576Q405.8226414387132 496.41200517912455 398.3165144322087 496.41200517912455Z " fill="#ffffff" transform="matrix(0.5375809411830254,0,0,0.5375809411830254,0,73.4569275581677)"/><path d="M671.9169506118453 461.56352985725925L671.9169506118453 461.56352985725925Q664.7831121058366 461.56352985725925 659.6273881118186 460.3429911158182Q654.4927078892047 459.1434961457814 649.1896774953575 456.4078058632412L649.1896774953575 456.4078058632412L649.1896774953575 439.44652611149195L651.294054635773 439.44652611149195L656.1551658301329 447.7798595875375Q660.8479268532597 456.113193063583 671.4539876409539 456.113193063583L671.4539876409539 456.113193063583Q677.5145938053506 456.113193063583 680.9236847728239 453.2301963812137Q684.3327757402969 450.3471996988444 684.3327757402969 445.3598258760596L684.3327757402969 445.3598258760596Q684.3327757402969 440.9616776525911 682.2073548284773 438.54164394111325Q680.0819339166576 436.10056645823124 676.2309237496972 434.20662703185724Q672.3588698113326 432.31268760548323 667.0558394174855 429.8926538940054L667.0558394174855 429.8926538940054Q659.3327753121604 426.4204316123197 655.1661085741376 422.25376487429696Q650.9994418361148 418.0870981362742 650.9994418361148 410.51134043077826L650.9994418361148 410.51134043077826Q650.9994418361148 404.89265346586876 654.1770513181423 400.3471988425712Q657.3546608001698 395.8017442192736 662.2789033087422 393.08709770813755Q667.2031458173145 390.35140742559736 672.5061762111617 390.35140742559736L672.5061762111617 390.35140742559736Q678.1248631760711 390.35140742559736 682.8176241991978 391.71925256686745Q687.5103852223244 393.08709770813755 692.3714964166844 395.50713141961546L692.3714964166844 395.50713141961546L692.3714964166844 412.0264919718774L690.2460755048646 412.0264919718774L685.2376579106757 403.98777129549006Q682.6703177993687 399.90527964308393 679.6400147171703 398.0744715309224Q676.609711634972 396.26470719016504 673.1164455818822 396.26470719016504L673.1164455818822 396.26470719016504Q667.9607215878641 396.26470719016504 664.8672871914532 398.832047301472Q661.7528090236383 401.4204311841831 661.7528090236383 405.9658858074807L661.7528090236383 405.9658858074807Q661.7528090236383 411.10056603009457 665.4775565621737 413.75208122701815Q669.1812603293051 416.4035964239418 676.2940550639096 419.74955607720244L676.2940550639096 419.74955607720244Q680.544896887549 421.8749769890222 684.8588700254008 423.9793541294377Q689.1728431632528 426.1047750412574 691.9927085314096 429.976828979622Q694.7915301281623 433.82783914658245 694.7915301281623 440.9616776525911L694.7915301281623 440.9616776525911Q694.7915301281623 447.63255318770837 691.1509576752434 452.2411391252184Q687.5103852223244 456.8707688341326 682.2073548284773 459.20662745999385Q676.9043244346301 461.56352985725925 671.9169506118453 461.56352985725925ZM744.7915309844356 494.8968637614414L712.363079250632 494.8968637614414L712.363079250632 492.47683004996355L721.9169514681186 487.61571885560363L721.9169514681186 407.62834374840895L712.8260422215235 399.73692947185066L712.8260422215235 398.6847409016429L731.5970863140301 390.35140742559736L732.5230122558129 390.35140742559736L733.7225072258498 399.5896230720216L734.7957395674616 399.5896230720216Q740.5406891607961 394.7495556490658 745.8437195546433 392.53995965162954Q751.1467499484904 390.35140742559736 757.3546625127162 390.35140742559736L757.3546625127162 390.35140742559736Q765.0987703894455 390.35140742559736 770.991026382609 394.28659267817443Q776.9043261471767 398.2217779307515 780.3134171146498 405.4187477509726Q783.722508082123 412.6157175711938 783.722508082123 422.63255275957175L783.722508082123 422.63255275957175Q783.722508082123 435.0483778880234 779.113922144613 443.7604992493438Q774.4842924356988 452.47262061066414 766.6139219305446 457.01807523396167Q758.7225076539863 461.56352985725925 749.336985607733 461.56352985725925L749.336985607733 461.56352985725925Q740.8563457318585 461.56352985725925 734.0381637969122 460.0483783161601L734.0381637969122 460.0483783161601L734.0381637969122 487.61571885560363L744.7915309844356 492.47683004996355L744.7915309844356 494.8968637614414ZM749.0213290366707 400.8101618134626L749.0213290366707 400.8101618134626Q745.4018003551561 400.8101618134626 741.5297464167915 401.946525469287Q737.6576924784268 403.08288912511136 734.0381637969122 405.35561643676016L734.0381637969122 405.35561643676016L734.0381637969122 447.92716598736655Q738.5836184202096 451.56773844028544 743.2763794433363 452.93558358155553Q747.9691404664629 454.2823849514215 753.7351338312016 454.2823849514215L753.7351338312016 454.2823849514215Q760.9952349656352 454.2823849514215 766.2982653594823 448.1586474728123Q771.6012957533295 442.0138662227989 771.6012957533295 427.6199265823566L771.6012957533295 427.6199265823566Q771.6012957533295 418.2344045361033 768.5709926711311 412.3211047715356Q765.5406895889328 406.4078050069679 760.3849655949147 403.6089834102153Q755.2502853723007 400.8101618134626 749.0213290366707 400.8101618134626ZM830.6922058561979 460.0483783161601L798.2637541223944 460.0483783161601L798.2637541223944 457.6283446046822L807.817626339881 452.7672334103223L807.817626339881 363.68894905653246L798.7267170932859 355.79753477997417L798.7267170932859 354.7453462097664L819.0339564982958 346.41201273372087L819.9388386686745 346.41201273372087L819.9388386686745 401.5677375840122L820.549108039395 401.5677375840122Q826.2940576327294 395.8017442192736 831.6812631121933 393.08709770813755Q837.0684685916569 390.35140742559736 843.570993955541 390.35140742559736L843.570993955541 390.35140742559736Q852.514596802307 390.35140742559736 858.196415081429 394.81268696327834Q863.878233360551 399.2950102723634 863.878233360551 408.0702629478962L863.878233360551 408.0702629478962L863.878233360551 452.7672334103223L873.4321055780375 457.6283446046822L873.4321055780375 460.0483783161601L841.003653844234 460.0483783161601L841.003653844234 457.6283446046822L851.7570210317574 453.2301963812137L851.7570210317574 415.2041014539049Q851.7570210317574 408.53322591878765 847.5903542937347 405.0399598656978Q843.4236875557119 401.5677375840122 836.7528120205947 401.5677375840122L836.7528120205947 401.5677375840122Q832.6703203681885 401.5677375840122 827.7460778596161 402.9355827252823Q822.8218353510438 404.28238409514825 819.9388386686745 406.8707679778594L819.9388386686745 406.8707679778594L819.9388386686745 453.2301963812137L830.6922058561979 457.6283446046822L830.6922058561979 460.0483783161601ZM902.5145976585803 372.022282532578L902.5145976585803 372.022282532578Q898.5794124060033 372.022282532578 895.9910285232921 369.3707673356544Q893.4236884119852 366.71925213873084 893.4236884119852 362.9313732859829L893.4236884119852 362.9313732859829Q893.4236884119852 358.9961880334058 895.9910285232921 356.4078041506947Q898.5794124060033 353.84046403938777 902.5145976585803 353.84046403938777L902.5145976585803 353.84046403938777Q906.4497829111574 353.84046403938777 909.0381667938685 356.4078041506947Q911.6055069051755 358.9961880334058 911.6055069051755 362.9313732859829L911.6055069051755 362.9313732859829Q911.6055069051755 366.71925213873084 909.0381667938685 369.3707673356544Q906.4497829111574 372.022282532578 902.5145976585803 372.022282532578ZM918.5709952399509 460.0483783161601L887.3630822475884 460.0483783161601L887.3630822475884 457.6283446046822L896.916954465075 452.7672334103223L896.916954465075 407.62834374840895L887.8260452184799 399.73692947185066L887.8260452184799 398.6847409016429L908.1122408520856 390.35140742559736L909.0381667938685 390.35140742559736L909.0381667938685 452.7672334103223L918.5709952399509 457.6283446046822L918.5709952399509 460.0483783161601ZM966.2982687845753 460.0483783161601L933.8698170507719 460.0483783161601L933.8698170507719 457.6283446046822L943.4236892682585 452.7672334103223L943.4236892682585 407.62834374840895L934.3327800216633 399.73692947185066L934.3327800216633 398.6847409016429L953.1248678855741 390.35140742559736L954.0297500559528 390.35140742559736L955.3975951972228 401.5677375840122L956.1551709677725 401.5677375840122Q961.9001205611069 395.8017442192736 967.2873260405706 393.08709770813755Q972.6745315200344 390.35140742559736 979.1770568839185 390.35140742559736L979.1770568839185 390.35140742559736Q988.1206597306845 390.35140742559736 993.8024780098066 394.81268696327834Q999.4842962889285 399.2950102723634 999.4842962889285 408.0702629478962L999.4842962889285 408.0702629478962L999.4842962889285 452.7672334103223L1009.038168506415 457.6283446046822L1009.038168506415 460.0483783161601L976.6097167726115 460.0483783161601L976.6097167726115 457.6283446046822L987.363083960135 452.7672334103223L987.363083960135 415.2041014539049Q987.363083960135 408.53322591878765 983.196417222112 405.0399598656978Q979.0297504840893 401.5677375840122 972.3588749489721 401.5677375840122L972.3588749489721 401.5677375840122Q968.276383296566 401.5677375840122 963.3521407879936 402.9355827252823Q958.4278982794212 404.28238409514825 955.544901597052 406.8707679778594L955.544901597052 406.8707679778594L955.544901597052 452.7672334103223L966.2982687845753 457.6283446046822L966.2982687845753 460.0483783161601ZM1045.2334553215624 460.0483783161601L1018.7183033523264 460.0483783161601L1018.7183033523264 457.6283446046822L1026.9043304285428 452.325314210835L1046.7486068626615 426.2520814410865L1026.6097176288847 398.9793537013011L1019.4758791228761 394.28659267817443L1019.4758791228761 391.8665589666966L1050.852142286472 391.8665589666966L1050.852142286472 394.28659267817443L1040.5406942984355 398.832047301472L1040.5406942984355 399.73692947185066L1054.6400211392197 418.8446739068238L1066.9085398678424 400.6628554136335L1066.9085398678424 399.73692947185066L1058.2805935921388 394.28659267817443L1058.2805935921388 391.8665589666966L1083.4279004201044 391.8665589666966L1083.4279004201044 394.28659267817443L1075.3891797437168 399.5896230720216L1057.670324221418 422.92716555922993L1079.7873279671853 452.93558358155553L1085.9952405314114 457.6283446046822L1085.9952405314114 460.0483783161601L1056.5970918798062 460.0483783161601L1056.5970918798062 457.6283446046822L1065.8563512976348 453.08288998138465L1065.8563512976348 452.17800781100595L1049.77890994486 430.5029232647259L1035.847933275309 451.2520818692231L1035.847933275309 452.17800781100595L1045.2334553215624 457.6283446046822L1045.2334553215624 460.0483783161601ZM1167.5188109511093 460.0483783161601L1135.0903592173058 460.0483783161601L1135.0903592173058 457.6283446046822L1144.6442314347923 452.7672334103223L1144.6442314347923 363.68894905653246L1135.5533221881974 355.79753477997417L1135.5533221881974 354.7453462097664L1155.8395178218032 346.41201273372087L1156.765443763586 346.41201273372087L1156.765443763586 401.5677375840122L1157.3546693629023 401.5677375840122Q1163.1206627276408 395.8017442192736 1168.5078682071048 393.08709770813755Q1173.8740299151643 390.35140742559736 1180.3975990504525 390.35140742559736L1180.3975990504525 390.35140742559736Q1189.3412018972185 390.35140742559736 1195.0230201763407 394.81268696327834Q1200.7048384554623 399.2950102723634 1200.7048384554623 408.0702629478962L1200.7048384554623 408.0702629478962L1200.7048384554623 452.7672334103223L1210.2376669015448 457.6283446046822L1210.2376669015448 460.0483783161601L1177.8092151677415 460.0483783161601L1177.8092151677415 457.6283446046822L1188.583626126669 453.2301963812137L1188.583626126669 415.2041014539049Q1188.583626126669 408.53322591878765 1184.416959388646 405.0399598656978Q1180.2502926506234 401.5677375840122 1173.5794171155062 401.5677375840122L1173.5794171155062 401.5677375840122Q1169.4758816916958 401.5677375840122 1164.5516391831234 402.9355827252823Q1159.6273966745512 404.28238409514825 1156.765443763586 406.8707679778594L1156.765443763586 406.8707679778594L1156.765443763586 453.2301963812137L1167.5188109511093 457.6283446046822L1167.5188109511093 460.0483783161601ZM1256.9127518759615 461.56352985725925L1256.9127518759615 461.56352985725925Q1246.9169604589877 461.56352985725925 1239.4043340677044 456.8707688341326Q1231.912751447825 452.17800781100595 1227.7460847098023 444.1392871346186Q1223.5794179717795 436.10056645823124 1223.5794179717795 425.9574686414283L1223.5794179717795 425.9574686414283Q1223.5794179717795 415.8143708246254 1227.7460847098023 407.775650148238Q1231.912751447825 399.73692947185066 1239.4043340677044 395.044168448724Q1246.9169604589877 390.35140742559736 1256.9127518759615 390.35140742559736L1256.9127518759615 390.35140742559736Q1266.9085432929355 390.35140742559736 1274.4001259128145 395.044168448724Q1281.9127523040984 399.73692947185066 1286.0794190421211 407.775650148238Q1290.2460857801439 415.8143708246254 1290.2460857801439 425.9574686414283L1290.2460857801439 425.9574686414283Q1290.2460857801439 436.10056645823124 1286.0794190421211 444.1392871346186Q1281.9127523040984 452.17800781100595 1274.4001259128145 456.8707688341326Q1266.9085432929355 461.56352985725925 1256.9127518759615 461.56352985725925ZM1259.0381727877811 455.03996072197106L1259.0381727877811 455.03996072197106Q1265.0987789521782 455.03996072197106 1269.0339642047552 451.2520818692231Q1272.9691494573322 447.46420301647515 1274.7789137980894 441.487771937695Q1276.6097219102512 435.5113408589149 1276.6097219102512 428.9877717236267L1276.6097219102512 428.9877717236267Q1276.6097219102512 420.9490510472393 1274.4001259128145 413.54164351297663Q1272.2115736867827 406.1131922073098 1267.4346375780392 401.4204311841831Q1262.6577014692962 396.7066263896523 1255.0819437638002 396.7066263896523L1255.0819437638002 396.7066263896523Q1248.8740311995741 396.7066263896523 1244.938845946997 400.4945052424003Q1241.00366069442 404.28238409514825 1239.109721268046 410.1956838597159Q1237.2157818416722 416.1089836242836 1237.2157818416722 422.77985915940087L1237.2157818416722 422.77985915940087Q1237.2157818416722 430.7975360643841 1239.488509153321 438.2259873700509Q1241.7612364649697 445.65443867571776 1246.6013038879255 450.3471996988444Q1251.4624150822854 455.03996072197106 1259.0381727877811 455.03996072197106ZM1330.08194504821 461.56352985725925L1330.08194504821 461.56352985725925Q1322.9691503136055 461.56352985725925 1317.8134263195875 460.3429911158182Q1312.657702325569 459.1434961457814 1307.3546719317224 456.4078058632412L1307.3546719317224 456.4078058632412L1307.3546719317224 439.44652611149195L1309.480092843542 439.44652611149195L1314.3412040379017 447.7798595875375Q1319.0339650610285 456.113193063583 1329.6400258487229 456.113193063583L1329.6400258487229 456.113193063583Q1335.7006320131195 456.113193063583 1339.1097229805928 453.2301963812137Q1342.5188139480656 450.3471996988444 1342.5188139480656 445.3598258760596L1342.5188139480656 445.3598258760596Q1342.5188139480656 440.9616776525911 1340.393393036246 438.54164394111325Q1338.2679721244263 436.10056645823124 1334.416961957466 434.20662703185724Q1330.5449080191015 432.31268760548323 1325.2418776252543 429.8926538940054L1325.2418776252543 429.8926538940054Q1317.5188135199292 426.4204316123197 1313.3521467819064 422.25376487429696Q1309.1854800438837 418.0870981362742 1309.1854800438837 410.51134043077826L1309.1854800438837 410.51134043077826Q1309.1854800438837 404.89265346586876 1312.3630895259112 400.3471988425712Q1315.5406990079387 395.8017442192736 1320.4649415165109 393.08709770813755Q1325.3891840250835 390.35140742559736 1330.6922144189307 390.35140742559736L1330.6922144189307 390.35140742559736Q1336.3109013838398 390.35140742559736 1341.0036624069667 391.71925256686745Q1345.696423430093 393.08709770813755 1350.5364908530491 395.50713141961546L1350.5364908530491 395.50713141961546L1350.5364908530491 412.0264919718774L1348.4321137126335 412.0264919718774L1343.4236961184442 403.98777129549006Q1340.8563560071375 399.90527964308393 1337.8260529249392 398.0744715309224Q1334.7957498427409 396.26470719016504 1331.302483789651 396.26470719016504L1331.302483789651 396.26470719016504Q1326.146759795633 396.26470719016504 1323.053325399222 398.832047301472Q1319.9388472314072 401.4204311841831 1319.9388472314072 405.9658858074807L1319.9388472314072 405.9658858074807Q1319.9388472314072 411.10056603009457 1323.6425509985384 413.75208122701815Q1327.367298537074 416.4035964239418 1334.4800932716785 419.74955607720244L1334.4800932716785 419.74955607720244Q1338.7309350953178 421.8749769890222 1343.0449082331697 423.9793541294377Q1347.3588813710217 426.1047750412574 1350.1577029677742 429.976828979622Q1352.9775683359312 433.82783914658245 1352.9775683359312 440.9616776525911L1352.9775683359312 440.9616776525911Q1352.9775683359312 447.63255318770837 1349.3369958830122 452.2411391252184Q1345.696423430093 456.8707688341326 1340.393393036246 459.20662745999385Q1335.0903626423988 461.56352985725925 1330.08194504821 461.56352985725925ZM1394.7915421159878 461.56352985725925L1394.7915421159878 461.56352985725925Q1388.1206665808704 461.56352985725925 1383.2805991579148 457.6283446046822Q1378.4194879635547 453.6931593521051 1378.4194879635547 446.55932084609645L1378.4194879635547 446.55932084609645L1378.4194879635547 398.9793537013011L1366.0036628351031 398.9793537013011L1366.0036628351031 398.0744715309224L1378.8824509344463 391.8665589666966L1389.6358181219698 375.1998920146055L1390.5407002923484 375.1998920146055L1390.5407002923484 391.8665589666966L1410.5533268977001 391.8665589666966L1410.5533268977001 398.9793537013011L1390.5407002923484 398.9793537013011L1390.5407002923484 443.99198073478954Q1390.5407002923484 447.92716598736655 1394.0339663454383 449.73693032812395Q1397.5061886271237 451.56773844028544 1402.2199934216546 451.56773844028544L1402.2199934216546 451.56773844028544Q1405.0819463326197 451.56773844028544 1407.5861551297144 451.2520818692231Q1410.090363926809 450.9574690695649 1411.9001282675663 450.4945060986735L1411.9001282675663 450.4945060986735L1412.3630912384574 450.4945060986735L1412.3630912384574 452.00965763977274Q1410.8479396973585 455.5029236928625 1406.3866601596774 458.5332267750609Q1401.9043368505922 461.56352985725925 1394.7915421159878 461.56352985725925ZM1440.2460883489634 372.022282532578L1440.2460883489634 372.022282532578Q1436.3109030963865 372.022282532578 1433.7225192136752 369.3707673356544Q1431.1551791023685 366.71925213873084 1431.1551791023685 362.9313732859829L1431.1551791023685 362.9313732859829Q1431.1551791023685 358.9961880334058 1433.7225192136752 356.4078041506947Q1436.3109030963865 353.84046403938777 1440.2460883489634 353.84046403938777L1440.2460883489634 353.84046403938777Q1444.1812736015404 353.84046403938777 1446.7486137128476 356.4078041506947Q1449.3369975955588 358.9961880334058 1449.3369975955588 362.9313732859829L1449.3369975955588 362.9313732859829Q1449.3369975955588 366.71925213873084 1446.7486137128476 369.3707673356544Q1444.1812736015404 372.022282532578 1440.2460883489634 372.022282532578ZM1456.3024859303341 460.0483783161601L1425.0945729379719 460.0483783161601L1425.0945729379719 457.6283446046822L1434.6274013840539 452.7672334103223L1434.6274013840539 407.62834374840895L1425.536492137459 399.73692947185066L1425.536492137459 398.6847409016429L1445.843731542469 390.35140742559736L1446.7486137128476 390.35140742559736L1446.7486137128476 452.7672334103223L1456.3024859303341 457.6283446046822L1456.3024859303341 460.0483783161601ZM1504.0297594749586 460.0483783161601L1471.6013077411553 460.0483783161601L1471.6013077411553 457.6283446046822L1481.1551799586418 452.7672334103223L1481.1551799586418 407.62834374840895L1472.0642707120464 399.73692947185066L1472.0642707120464 398.6847409016429L1490.8563585759575 390.35140742559736L1491.7612407463362 390.35140742559736L1493.129085887606 401.5677375840122L1493.8866616581558 401.5677375840122Q1499.63161125149 395.8017442192736 1505.0188167309539 393.08709770813755Q1510.3849784390136 390.35140742559736 1516.9085475743018 390.35140742559736L1516.9085475743018 390.35140742559736Q1525.8521504210676 390.35140742559736 1531.5339687001897 394.81268696327834Q1537.2157869793114 399.2950102723634 1537.2157869793114 408.0702629478962L1537.2157869793114 408.0702629478962L1537.2157869793114 452.7672334103223L1546.7486154253938 457.6283446046822L1546.7486154253938 460.0483783161601L1514.3412074629946 460.0483783161601L1514.3412074629946 457.6283446046822L1525.094574650518 452.7672334103223L1525.094574650518 415.2041014539049Q1525.094574650518 408.53322591878765 1520.9279079124954 405.0399598656978Q1516.7612411744726 401.5677375840122 1510.0903656393552 401.5677375840122L1510.0903656393552 401.5677375840122Q1506.007873986949 401.5677375840122 1501.083631478377 402.9355827252823Q1496.1593889698047 404.28238409514825 1493.276392287435 406.8707679778594L1493.276392287435 406.8707679778594L1493.276392287435 452.7672334103223L1504.0297594749586 457.6283446046822L1504.0297594749586 460.0483783161601ZM1591.6139360590537 438.54164394111325L1591.6139360590537 438.54164394111325Q1584.9430605239363 438.54164394111325 1579.3243735590268 436.10056645823124L1579.3243735590268 436.10056645823124Q1576.2940704768284 437.3211051996722 1575.0104004211748 439.29921971166283Q1573.7267303655212 441.2562904522493 1573.7267303655212 443.5290177638981L1573.7267303655212 443.5290177638981Q1573.7267303655212 451.10477546939404 1584.4800975530447 451.10477546939404L1584.4800975530447 451.10477546939404L1602.661916046235 451.10477546939404Q1613.7309398048205 451.10477546939404 1618.949795113051 455.96588666375396Q1624.1896941926861 460.8059540867097 1624.1896941926861 470.35982630419625L1624.1896941926861 470.35982630419625Q1624.1896941926861 476.86235166808024 1619.8546772834297 482.8598265182645Q1615.5407041455783 488.83625759704466 1607.5861585548073 492.6241364497927Q1599.6316129640368 496.4120153025406 1588.730939376684 496.4120153025406L1588.730939376684 496.4120153025406Q1574.336999736242 496.4120153025406 1568.0449120863996 491.1931599943101Q1561.7528244365567 485.9532609146754 1561.7528244365567 478.37750320917945L1561.7528244365567 478.37750320917945Q1561.7528244365567 472.7798600156741 1564.488514719097 468.6763245918638L1564.488514719097 468.6763245918638L1574.9472691069623 461.7108362570884L1574.9472691069623 461.10056688636786Q1569.1812757422235 459.901071916331 1566.1509726600252 456.63928734868693Q1563.120669577827 453.37750278104284 1563.120669577827 448.6847417579162L1563.120669577827 448.6847417579162Q1563.120669577827 442.91874839317757 1567.0558548304039 438.9835631406005L1567.0558548304039 438.9835631406005L1575.2418819066206 434.7537650883653L1575.2418819066206 433.82783914658245Q1570.4018144836646 430.65022966455496 1567.5188178012954 425.6628558417701Q1564.6358211189263 420.65443824758114 1564.6358211189263 414.4465256833553L1564.6358211189263 414.4465256833553Q1564.6358211189263 407.62834374840895 1568.1290871720162 402.1780069547327Q1571.6013094537016 396.7066263896523 1577.7460907037148 393.52901690762485Q1583.8698281823245 390.35140742559736 1591.6139360590537 390.35140742559736L1591.6139360590537 390.35140742559736Q1594.7915455410807 390.35140742559736 1598.4952493082124 391.10898319614694Q1602.219996846748 391.8665589666966 1604.934643357884 393.08709770813755L1604.934643357884 393.08709770813755L1627.6619164743715 391.8665589666966L1627.6619164743715 400.052586042913L1613.5836334049918 399.1477038725343L1612.973364034271 399.73692947185066Q1615.393397745749 402.47261975439085 1616.9927243724646 406.4078050069679Q1618.5710072277766 410.342990259545 1618.5710072277766 414.4465256833553L1618.5710072277766 414.4465256833553Q1618.5710072277766 421.26470761830166 1615.0987849460907 426.7150444119779Q1611.6055188930009 432.16538120565417 1605.4607376429876 435.34299068768166Q1599.3370001643784 438.54164394111325 1591.6139360590537 438.54164394111325ZM1593.1290876001526 432.31268760548323L1593.1290876001526 432.31268760548323Q1599.1896937645492 432.31268760548323 1602.661916046235 427.09383229725273Q1606.155182099325 421.8749769890222 1606.155182099325 414.8884448828426L1606.155182099325 414.8884448828426Q1606.155182099325 406.55511140679704 1601.6097274760273 401.4835624983956Q1597.0642728527296 396.4120135899941 1590.5407037174414 396.4120135899941L1590.5407037174414 396.4120135899941Q1584.0381783535572 396.4120135899941 1580.5449123004678 401.63086889822466Q1577.051646247378 406.8707679778594 1577.051646247378 413.9835627124639L1577.051646247378 413.9835627124639Q1577.051646247378 421.8749769890222 1581.5971008706756 427.09383229725273Q1586.1425554939728 432.31268760548323 1593.1290876001526 432.31268760548323ZM1572.5061916240802 476.7150452682512L1572.5061916240802 476.7150452682512Q1572.5061916240802 483.38592080336844 1577.7460907037148 487.78406902683696Q1582.9649460119454 492.1611734789012 1590.5407037174414 492.1611734789012L1590.5407037174414 492.1611734789012Q1597.358885652388 492.1611734789012 1602.4304345607893 489.50965828197764Q1607.5230272405947 486.85814308505405 1610.3218488373477 482.54416994720225Q1613.1206704341002 478.23019680935033 1613.1206704341002 473.3901293863946L1613.1206704341002 473.3901293863946Q1613.1206704341002 466.71925385127736 1609.5642730667983 464.13086996856623Q1606.0078756994958 461.56352985725925 1596.7486162816672 461.56352985725925L1596.7486162816672 461.56352985725925L1580.5449123004678 461.56352985725925Q1580.0819493295762 461.56352985725925 1579.7873365299179 461.56352985725925L1579.7873365299179 461.56352985725925Q1575.7048448775117 463.98356356873717 1574.1055182507962 467.70831110727266Q1572.5061916240802 471.412014874404 1572.5061916240802 476.7150452682512Z " fill="#ffffff" transform="matrix(0.5375809411830254,0,0,0.5375809411830254,0,73.4569275581677)"/></g></svg>